# xmcd
#
# Track frame offsets:
#	150
#	16900
#	34125
#	50325
#	65450
#	77300
#	91025
#	108875
#	124925
#	139550
#	161600
#
# Disc length: 2310 seconds
#
# Revision: 1
# Processed by: cddbd v1.5.1PL0 Copyright (c) Steve Scherf et al.
# Submitted via: audiograbber 1.83.01
#
DISCID=7b09040b
DTITLE=Karree J. Phillips - Hillside Happiness
DYEAR=1900
DGENRE=Country
TTITLE0=Somebody's Baby
TTITLE1=Silver and gold
TTITLE2=Canadian skies
TTITLE3=Thinkin' bout saying yes
TTITLE4=Leaving you is on my list of things to do today
TTITLE5=Sleazy motel
TTITLE6=Seven Spanish Angels (with Bob Reagan)
TTITLE7=You light up my life
TTITLE8=One day at a time
TTITLE9=My 3 Moms
TTITLE10=Amazing Grace (live in Cathedral in Skive, Denmark)
EXTD=
EXTT0=
EXTT1=
EXTT2=
EXTT3=
EXTT4=
EXTT5=
EXTT6=
EXTT7=
EXTT8=
EXTT9=
EXTT10=
PLAYORDER=
